<svg xmlns="http://www.w3.org/2000/svg" xmlns:xlink="http://www.w3.org/1999/xlink" width="416" height="394" viewBox="0 0 416 394">
    <defs>
        <path id="b" d="M208.859 17l-22.983 39.807-21.985-38.079-3.997 6.925-19.985 34.615-19.985-34.615-.71-1.23-.29-.5L19 197l89.932 155.768 5.586 9.674 4.407 7.633 1-1.73h-.001l19.984-34.614 19.986 34.615 3.997 6.924 21.985-38.078 22.983 39.807 22.982-39.807 19.986 34.617 1.998 3.461 23.983-41.539 19.986 34.614.998 1.73 9.992-17.307L398.717 197 308.784 41.231l-9.992-17.307-.998 1.729-19.986 34.615-23.983-41.54-1.998 3.463-19.986 34.616L208.86 17zm-19.986 44.998l19.986-34.615 19.985 34.615-19.985 34.616-19.986-34.616zm46.966 1.733l19.985-34.617L275.81 63.73l-19.986 34.615-19.985-34.614zm-93.931 0l19.984-34.617 19.986 34.617-19.985 34.614-19.985-34.615zM287.8 316.423L356.75 197 287.8 77.576l19.986-34.615 88.934 154.04-88.934 154.038-19.986-34.615zM20.997 197l88.934-154.039 19.985 34.615L60.967 197l68.95 119.424-19.985 34.615L20.997 197zm191.86-93.462l19.985-34.615 19.985 34.615-19.986 34.615-19.985-34.615zm-47.967 0l19.986-34.615 19.985 34.615-19.985 34.615-19.986-34.615zm100.927 174.808L312.782 197l-46.965-81.346 19.985-34.615L352.752 197l-66.95 115.962-19.985-34.616zM64.965 197l66.95-115.961 19.985 34.615L104.935 197l46.965 81.346-19.986 34.616L64.964 197zm123.908-51.923l19.986-34.615 19.985 34.615-19.985 34.615-19.986-34.615zm53.96 93.462L266.816 197l-23.983-41.54 19.986-34.614L306.787 197l-43.968 76.154-19.986-34.615zM110.93 197l43.969-76.154 19.984 34.614L150.9 197l23.983 41.54-19.984 34.614L110.93 197zm107.92 0l19.986-34.615L258.82 197l-19.985 34.615L218.85 197zm-59.955 0l19.986-34.615L198.866 197l-19.985 34.615L158.895 197zm29.978 51.922l19.986-34.616 19.985 34.616-19.985 34.615-19.986-34.615zm23.983 41.539l19.986-34.614 19.985 34.615-19.985 34.615-19.986-34.616zm-47.966 0l19.986-34.614 19.985 34.614-19.985 34.616-19.986-34.616zm70.949 39.807l19.985-34.615 19.986 34.616-19.986 34.615-19.985-34.616zm-93.932 0l19.986-34.615 19.985 34.615-19.986 34.616-19.985-34.616zM188.873 332l19.986-34.615L228.844 332l-19.985 34.615L188.873 332z"/>
        <filter id="a" width="115.8%" height="116.7%" x="-7.9%" y="-8.3%" filterUnits="objectBoundingBox">
            <feOffset in="SourceAlpha" result="shadowOffsetOuter1"/>
            <feGaussianBlur in="shadowOffsetOuter1" result="shadowBlurOuter1" stdDeviation="10"/>
            <feColorMatrix in="shadowBlurOuter1" values="0 0 0 0 0.945098039 0 0 0 0 0.831372549 0 0 0 0 0.992156863 0 0 0 1 0"/>
        </filter>
    </defs>
    <g fill="none" fill-rule="evenodd">
        <use fill="#000" filter="url(#a)" xlink:href="#b"/>
        <use fill="#FFF" xlink:href="#b"/>
    </g>
</svg>
